<svg width="205" height="92" viewBox="0 0 205 92" fill="none" xmlns="http://www.w3.org/2000/svg">
<path d="M0.512069 54.7531L4.51552 50.4703C5.81897 52.0065 8.28621 53.0307 10.9397 53.0307C13.3138 53.0307 14.4776 52.3789 14.4776 51.122C14.4776 50.6565 14.1983 50.2841 13.6862 50.0048C13.1742 49.7255 12.2431 49.3996 10.8466 49.0738C9.45001 48.7479 8.37932 48.422 7.68104 48.1893C4.09656 46.9324 2.28104 44.791 2.28104 41.672C2.28104 39.2979 3.16552 37.4358 4.93449 36.1324C6.70346 34.7824 8.84484 34.1306 11.4052 34.1306C14.7104 34.1306 17.3638 35.1548 19.4586 37.1565L16.1535 41.7186C14.8966 40.5548 13.2207 39.9962 11.219 39.9962C9.72932 39.9962 8.89139 40.6013 8.89139 41.4858C8.89139 42.091 9.12415 42.4169 9.86898 42.7427C10.7535 43.1151 12.7086 43.441 15.3155 44.372C19.1793 45.6755 21.088 47.91 21.088 51.0289C21.088 55.8238 17.6431 58.9427 10.7535 58.9427C6.19139 58.9427 2.79311 57.5462 0.512069 54.7531ZM33.9224 34.1306C37.5069 34.1306 40.5793 35.341 43.1397 37.7617C45.7 40.1358 46.9569 43.0686 46.9569 46.56C46.9569 50.0514 45.7 52.9841 43.1397 55.4048C40.5793 57.7789 37.5069 58.9893 33.9224 58.9893C30.2914 58.9893 27.219 57.7789 24.6586 55.4048C22.1448 52.9841 20.8879 50.0514 20.8879 46.56C20.8879 43.0686 22.1448 40.1358 24.6586 37.7617C27.219 35.341 30.2914 34.1306 33.9224 34.1306ZM27.8241 46.56C27.8241 48.2824 28.4293 49.772 29.5931 50.9358C30.7569 52.0996 32.2 52.7048 33.9224 52.7048C35.6448 52.7048 37.0879 52.0996 38.2517 50.9358C39.4155 49.7255 40.0207 48.2824 40.0207 46.56C40.0207 44.8376 39.4155 43.3944 38.2517 42.2307C37.0879 41.0203 35.6448 40.4151 33.9224 40.4151C32.2 40.4151 30.7569 41.0203 29.5931 42.2307C28.4293 43.3944 27.8241 44.8376 27.8241 46.56ZM48.1305 50.6565L48.1305 25.8444L55.0667 25.8444L55.0667 49.5858C55.0667 51.6807 55.8581 52.6117 57.7667 52.6117C58.4185 52.6117 58.9771 52.5651 59.4426 52.4255L59.4426 58.5703C58.6512 58.8031 57.534 58.8962 56.1374 58.8962C50.784 58.8962 48.1305 56.1496 48.1305 50.6565ZM58.8727 51.7272C58.8727 46.8858 62.0382 44.4186 69.2538 43.7203C72.652 43.3944 74.002 43.022 74.002 41.5789C74.002 40.2755 72.9313 39.6238 70.8365 39.6238C68.3693 39.6238 66.321 40.6013 64.5986 42.5565L60.502 39.0651C62.9693 35.76 66.3675 34.0841 70.7434 34.0841C77.0279 34.0841 80.7986 37.0169 80.7986 41.9979L80.7986 50.8427C80.7986 52.472 81.3107 52.6583 82.5676 52.6583L82.7072 52.6583L82.7072 58.1514C82.0555 58.4772 81.1245 58.6634 79.9141 58.6634C78.6107 58.6634 77.4934 58.3376 76.6089 57.6393C76.1434 57.2203 75.771 56.7083 75.5382 56.1031C74.002 57.9652 71.3486 58.8962 67.6244 58.8962C62.4106 58.8962 58.8727 56.0565 58.8727 51.7272ZM65.6227 51.0289C65.6227 52.472 66.6469 53.1703 68.7417 53.1703C72.0469 53.1703 74.002 51.7738 74.002 49.0272L74.002 47.3048C73.7693 47.5376 73.3969 47.6772 72.6986 47.8634L71.8607 48.0031C71.3486 48.0496 70.0451 48.2358 69.44 48.3755C67.0193 48.7479 65.6227 49.3996 65.6227 51.0289ZM89.9657 58.291L83.0294 58.291L83.0294 34.8289L89.9657 34.8289L89.9657 38.041C91.0364 35.6669 93.5501 34.3169 96.7622 34.3169C97.2277 34.3169 97.8329 34.3634 98.5777 34.4565L98.5777 40.9738C97.8795 40.8341 97.0881 40.741 96.2502 40.741C92.2932 40.741 89.9657 42.9755 89.9657 46.8393L89.9657 58.291Z" fill="#0F3B5F"/>
<path d="M137.267 33.1368C136.583 34.2984 134.997 34.5224 134.018 33.5957L132.711 32.3587C131.693 31.3954 131.888 29.7242 133.1 29.0207L143.117 23.2062L137.267 33.1368Z" fill="#F8C200"/>
<path d="M114.87 51.9098C114.87 47.0685 118.036 44.6012 125.251 43.9029C128.65 43.5771 130 43.2047 130 41.7616C130 40.4581 128.929 39.8064 126.834 39.8064C124.367 39.8064 122.319 40.784 120.596 42.7391L116.5 39.2478C118.967 35.9426 122.365 34.2667 126.741 34.2667C133.026 34.2667 136.796 37.1995 136.796 42.1805V51.0254C136.796 52.6547 137.308 52.8409 138.565 52.8409H138.705V58.334C138.053 58.6598 137.122 58.846 135.912 58.846C134.608 58.846 133.491 58.5202 132.607 57.8219C132.141 57.4029 131.769 56.8909 131.536 56.2857C130 58.1478 127.346 59.0788 123.622 59.0788C118.408 59.0788 114.87 56.2391 114.87 51.9098ZM121.62 51.2116C121.62 52.6547 122.644 53.3529 124.739 53.3529C128.044 53.3529 130 51.9564 130 49.2098V47.4874C129.767 47.7202 129.394 47.8598 128.696 48.046L127.858 48.1857C127.346 48.2322 126.043 48.4185 125.438 48.5581C123.017 48.9305 121.62 49.5822 121.62 51.2116ZM146.429 67.4581H139.493V35.0115H146.429V38.084C147.127 36.0357 149.874 34.5926 153.412 34.5926C156.717 34.5926 159.51 35.7564 161.698 38.1305C163.932 40.4581 165.049 43.3443 165.049 46.7426C165.049 50.1409 163.932 53.0271 161.698 55.4012C159.51 57.7288 156.717 58.8926 153.412 58.8926C149.874 58.8926 147.127 57.4495 146.429 55.4012V67.4581ZM152.155 52.6081C153.831 52.6081 155.227 52.0495 156.391 50.9322C157.555 49.7685 158.113 48.3719 158.113 46.7426C158.113 45.1133 157.555 43.7167 156.391 42.5995C155.227 41.4357 153.831 40.8771 152.155 40.8771C150.432 40.8771 148.989 41.4357 147.779 42.5995C146.615 43.7167 146.01 45.1133 146.01 46.7426C146.01 48.3719 146.615 49.7685 147.779 50.9322C148.989 52.0495 150.432 52.6081 152.155 52.6081ZM173.707 67.4581H166.771V35.0115H173.707V38.084C174.405 36.0357 177.152 34.5926 180.69 34.5926C183.995 34.5926 186.788 35.7564 188.976 38.1305C191.21 40.4581 192.328 43.3443 192.328 46.7426C192.328 50.1409 191.21 53.0271 188.976 55.4012C186.788 57.7288 183.995 58.8926 180.69 58.8926C177.152 58.8926 174.405 57.4495 173.707 55.4012V67.4581ZM179.433 52.6081C181.109 52.6081 182.505 52.0495 183.669 50.9322C184.833 49.7685 185.391 48.3719 185.391 46.7426C185.391 45.1133 184.833 43.7167 183.669 42.5995C182.505 41.4357 181.109 40.8771 179.433 40.8771C177.71 40.8771 176.267 41.4357 175.057 42.5995C173.893 43.7167 173.288 45.1133 173.288 46.7426C173.288 48.3719 173.893 49.7685 175.057 50.9322C176.267 52.0495 177.71 52.6081 179.433 52.6081Z" fill="#0F3B5F"/>
<path d="M108.968 51.9104C110.045 51.0988 111.596 51.4985 112.146 52.7292L112.881 54.3719C113.453 55.6512 112.634 57.1208 111.245 57.3074L99.7656 58.8493L108.968 51.9104Z" fill="#F8C200"/>
<path d="M109.758 42.5496C111.096 42.3906 112.235 43.5174 112.091 44.8577L111.898 46.6468C111.748 48.04 110.3 48.8971 109.006 48.3587L98.3124 43.9086L109.758 42.5496Z" fill="#F8C200"/>
<path d="M112.952 34.2986C114.259 34.6281 114.921 36.0873 114.307 37.2876L113.488 38.8899C112.85 40.1377 111.192 40.4213 110.176 39.4564L101.776 31.4813L112.952 34.2986Z" fill="#F8C200"/>
<path d="M119.553 28.7664C120.549 29.6748 120.442 31.2734 119.334 32.041L117.855 33.0657C116.703 33.8636 115.107 33.3295 114.668 31.9988L111.037 21L119.553 28.7664Z" fill="#F8C200"/>
<path d="M123.106 28.3962C122.725 29.6893 123.645 31.001 124.99 31.0832L126.786 31.193C128.185 31.2784 129.273 29.9948 128.959 28.6291L126.364 17.3409L123.106 28.3962Z" fill="#F8C200"/>
</svg>
