<svg width="32" height="32" viewBox="0 0 32 32" fill="none" xmlns="http://www.w3.org/2000/svg">
<path d="M27.354 12.0186C26.8268 12.9024 25.6044 13.0729 24.8499 12.3678L23.8425 11.4266C23.0579 10.6936 23.2082 9.42207 24.1424 8.8868L31.8628 4.46272L27.354 12.0186Z" fill="#F8C200"/>
<path fill-rule="evenodd" clip-rule="evenodd" d="M10.0919 26.3024C10.0919 22.6188 12.5321 20.7415 18.0929 20.2102C20.7126 19.9623 21.7531 19.679 21.7531 18.581C21.7531 17.5892 20.9276 17.0933 19.313 17.0933C17.4116 17.0933 15.8331 17.8371 14.5051 19.3247L11.3482 16.6683C13.2496 14.1535 15.8685 12.8783 19.2413 12.8783C24.0853 12.8783 26.991 15.1098 26.991 18.8997V25.6295C26.991 26.8692 27.3856 27.0109 28.3544 27.0109H28.4623V31.1904C27.9598 31.4383 27.2422 31.58 26.3097 31.58C25.3046 31.58 24.4437 31.3321 23.7624 30.8008C23.4032 30.482 23.1165 30.0924 22.9369 29.6319C21.7531 31.0487 19.7076 31.7571 16.8374 31.7571C12.8188 31.7571 10.0919 29.5965 10.0919 26.3024ZM15.2944 25.7712C15.2944 26.8692 16.0836 27.4004 17.6983 27.4004C20.2455 27.4004 21.7531 26.3379 21.7531 24.2481V22.9376C21.5735 23.1147 21.286 23.2209 20.7481 23.3626L20.1022 23.4689C19.7076 23.5042 18.7033 23.646 18.237 23.7522C16.3711 24.0356 15.2944 24.5314 15.2944 25.7712Z" fill="white"/>
<path d="M8.6137 12.9026C9.62105 13.1533 10.1313 14.2636 9.65804 15.1768L9.02681 16.396C8.53508 17.3454 7.25721 17.5612 6.47415 16.827L0 10.759L8.6137 12.9026Z" fill="#F8C200"/>
<path d="M13.7012 8.69331C14.4689 9.38448 14.3864 10.6008 13.5325 11.1848L12.3925 11.9645C11.5047 12.5716 10.2746 12.1652 9.93622 11.1527L7.1377 2.78409L13.7012 8.69331Z" fill="#F8C200"/>
<path d="M16.4397 8.41164C16.1461 9.39552 16.8551 10.3936 17.8918 10.4561L19.276 10.5396C20.3543 10.6046 21.1928 9.62797 20.9508 8.58885L18.9508 0L16.4397 8.41164Z" fill="#F8C200"/>
</svg>
